<svg xmlns="http://www.w3.org/2000/svg" version="1.1" xmlns:xlink="http://www.w3.org/1999/xlink" xmlns:svgjs="http://svgjs.dev/svgjs" width="1500" height="1500" viewBox="0 0 1500 1500"><rect width="1500" height="1500" fill="#ffffff"></rect><g transform="matrix(0.6666666666666666,0,0,0.6666666666666666,249.39393939393938,626.4959014962661)"><svg viewBox="0 0 396 97" data-background-color="#ffffff" preserveAspectRatio="xMidYMid meet" height="367" width="1500" xmlns="http://www.w3.org/2000/svg" xmlns:xlink="http://www.w3.org/1999/xlink"><g id="tight-bounds" transform="matrix(1,0,0,1,0.2400000000000091,0.4641589435784397)"><svg viewBox="0 0 395.52 96.07168211284313" height="96.07168211284313" width="395.52"><g><svg viewBox="0 0 539.5173681662676 131.04859700856446" height="96.07168211284313" width="395.52"><g transform="matrix(1,0,0,1,143.9973681662676,18.111636779041838)"><svg viewBox="0 0 395.52 94.82532345048078" height="94.82532345048078" width="395.52"><g id="textblocktransform"><svg viewBox="0 0 395.52 94.82532345048078" height="94.82532345048078" width="395.52" id="textblock"><g><svg viewBox="0 0 395.52 54.85001083423619" height="54.85001083423619" width="395.52"><g transform="matrix(1,0,0,1,0,0)"><svg width="395.52" viewBox="1.37 -30.76 225.32 31.25" height="54.85001083423619" data-palette-color="#020101"><g class="wordmark-text-0" data-fill-palette-color="primary" id="text-0"><path d="M11.72-1.22L11.72-1.22 9.52-1.22 9.52-20.85 1.37-20.85 1.37-19.63 4.83-19.63 4.83-4Q4.83-1.81 3.27-1.37L3.27-1.37Q2.59-1.22 1.37-1.22L1.37-1.22 1.37 0 12.94 0Q12.94-1.07 12.3-1.17L12.3-1.17Q12.06-1.22 11.72-1.22ZM10.06-27.69L10.06-27.69Q10.06-29.54 8.4-30.42L8.4-30.42Q7.71-30.76 6.98-30.76L6.98-30.76Q5.13-30.76 4.3-29.1L4.3-29.1Q3.96-28.42 3.96-27.69L3.96-27.69Q3.96-25.73 5.66-24.95L5.66-24.95Q6.3-24.66 6.98-24.66L6.98-24.66Q8.94-24.66 9.77-26.32L9.77-26.32Q10.06-26.95 10.06-27.69ZM15.72 0L28.76 0Q28.76-1.07 27.98-1.22L27.98-1.22Q27.73-1.27 27.49-1.27L27.49-1.27 24.85-1.27 24.85-12.79 27.05-14.79 37.69 0 45.51 0Q45.51-1.07 44.72-1.22L44.72-1.22Q44.48-1.27 44.24-1.27L44.24-1.27 43.26-1.27 30.86-18.31 39.01-25.88Q41.06-27.69 41.89-27.93L41.89-27.93Q42.33-28.03 42.77-28.03L42.77-28.03Q43.89-28.03 43.99-28.81L43.99-28.81Q44.04-29.05 44.04-29.3L44.04-29.3 35.15-29.3 35.15-28.03 39.06-28.03 24.85-15.04 24.85-28.03 28.76-28.03 28.76-29.3 15.72-29.3 15.72-28.03 19.63-28.03 19.63-1.27 15.72-1.27 15.72 0ZM62.84-29.79L62.84-29.79Q56.68-29.79 52.39-25.78L52.39-25.78Q47.8-21.53 47.8-14.79L47.8-14.79Q47.8-6.98 53.32-2.64L53.32-2.64Q57.37 0.49 62.69 0.49L62.69 0.49Q68.79 0.49 73.09-3.52L73.09-3.52Q77.63-7.81 77.63-14.6L77.63-14.6Q77.63-22.66 71.97-26.86L71.97-26.86Q68.01-29.79 62.84-29.79ZM62.84-0.88L62.84-0.88Q53.85-0.98 53.8-14.6L53.8-14.6Q53.85-28.37 62.69-28.42L62.69-28.42Q71.53-28.32 71.58-14.84L71.58-14.84Q71.53-0.93 62.84-0.88ZM95.4-29.3L81.49-29.3 81.49-28.03 85.39-28.03 85.39-1.27 81.49-1.27 81.49 0 95.4 0Q102.04 0 106.39-4.1L106.39-4.1Q110.64-8.15 110.64-14.6L110.64-14.6Q110.64-22.9 104.48-26.81L104.48-26.81Q100.58-29.3 95.4-29.3L95.4-29.3ZM90.62-28.03L95.4-28.03Q102.19-28.03 104-21.39L104-21.39Q104.73-18.7 104.73-14.84L104.73-14.84Q104.39-1.51 95.45-1.27L95.45-1.27 90.62-1.27 90.62-28.03ZM136.81-20.26L137.93-20.26 137.73-29.3 114.44-29.3 114.44-28.03 118.35-28.03 118.35-1.27 114.44-1.27 114.44 0 137.73 0 137.93-9.03 136.81-9.03 135.93-6.3Q134.61-1.95 131.63-1.37L131.63-1.37Q131.09-1.27 130.51-1.27L130.51-1.27 123.57-1.27 123.57-14.4 133.39-14.4 133.39-15.82 123.57-15.82 123.57-28.03 130.51-28.03Q134.37-28.03 135.83-23.34L135.83-23.34Q135.88-23.14 135.93-23L135.93-23 136.81-20.26ZM146.76 0L161.32 0Q160.93-1.17 160-1.27L160-1.27 156.63-1.27 156.63-28.03 158.68-28.03Q162.73-27.98 164.15-23.05L164.15-23.05 165.22-19.34 166.64-19.34 166.39-29.3 141.78-29.3 141.59-19.34 143.01-19.34 144.08-23.05Q145.54-27.98 149.5-28.03L149.5-28.03 151.4-28.03 151.4-1.27 146.76-1.27 146.76 0ZM191.88-20.26L193-20.26 192.81-29.3 169.52-29.3 169.52-28.03 173.42-28.03 173.42-1.27 169.52-1.27 169.52 0 192.81 0 193-9.03 191.88-9.03 191-6.3Q189.68-1.95 186.7-1.37L186.7-1.37Q186.17-1.27 185.58-1.27L185.58-1.27 178.65-1.27 178.65-14.4 188.46-14.4 188.46-15.82 178.65-15.82 178.65-28.03 185.58-28.03Q189.44-28.03 190.9-23.34L190.9-23.34Q190.95-23.14 191-23L191-23 191.88-20.26ZM196.91 0L209.94 0Q209.94-1.07 209.16-1.22L209.16-1.22Q208.92-1.27 208.67-1.27L208.67-1.27 206.04-1.27 206.04-12.79 208.23-14.79 218.88 0 226.69 0Q226.69-1.07 225.91-1.22L225.91-1.22Q225.67-1.27 225.42-1.27L225.42-1.27 224.45-1.27 212.04-18.31 220.2-25.88Q222.25-27.69 223.08-27.93L223.08-27.93Q223.52-28.03 223.96-28.03L223.96-28.03Q225.08-28.03 225.18-28.81L225.18-28.81Q225.23-29.05 225.23-29.3L225.23-29.3 216.34-29.3 216.34-28.03 220.25-28.03 206.04-15.04 206.04-28.03 209.94-28.03 209.94-29.3 196.91-29.3 196.91-28.03 200.81-28.03 200.81-1.27 196.91-1.27 196.91 0Z" fill="#000000" data-fill-palette-color="primary"></path></g></svg></g></svg></g><g transform="matrix(1,0,0,1,0,67.79878199193934)"><svg viewBox="0 0 187.87199999999999 27.026541458541452" height="27.026541458541452" width="187.87199999999999"><g transform="matrix(1,0,0,1,0,0)"><svg width="187.87199999999999" viewBox="4.7 -35.5 250.22 36.00192307692308" height="27.026541458541452" data-palette-color="#090909"><path d="M7.85-33.45L7.85-1.55Q7.8-0.9 7.33-0.45 6.85 0 6.25 0L6.25 0Q5.55 0 5.13-0.45 4.7-0.9 4.7-1.55L4.7-1.55 4.7-33.45Q4.7-34.1 5.15-34.55 5.6-35 6.3-35L6.3-35Q6.9-35 7.38-34.55 7.85-34.1 7.85-33.45L7.85-33.45ZM17.2 0L16.85 0Q16 0 15.55-0.55 15.1-1.1 15.1-1.95L15.1-1.95 15.1-3Q15.1-3.9 15.55-4.4 16-4.9 16.85-4.9L16.85-4.9 17.2-4.9Q18.05-4.9 18.5-4.4 18.95-3.9 18.95-3L18.95-3 18.95-1.95Q18.95-1.1 18.5-0.55 18.05 0 17.2 0L17.2 0ZM36.64 0L36.64 0Q35.95 0 35.52-0.45 35.09-0.9 35.09-1.5L35.09-1.5 35.09-33.35 38.2-33.35 38.2-1.5Q38.2-0.9 37.74-0.45 37.3 0 36.64 0ZM48.55-32.15L24.74-32.15Q24.14-32.15 23.69-32.55 23.24-32.95 23.24-33.6L23.24-33.6Q23.24-34.2 23.69-34.6 24.14-35 24.74-35L24.74-35 48.55-35Q49.14-35 49.59-34.6 50.05-34.2 50.05-33.55L50.05-33.55Q50.05-32.9 49.59-32.52 49.14-32.15 48.55-32.15L48.55-32.15ZM79.74 0.5L79.74 0.5Q75.94 0.55 73.14-0.7 70.34-1.95 67.79-4.45L67.79-4.45Q67.54-4.65 67.37-4.95 67.19-5.25 67.19-5.65L67.19-5.65Q67.19-6.25 67.67-6.75 68.14-7.25 68.74-7.25L68.74-7.25Q69.34-7.25 69.84-6.75L69.84-6.75Q71.79-4.65 74.27-3.55 76.74-2.45 79.59-2.45L79.59-2.45Q81.99-2.45 83.87-3.2 85.74-3.95 86.84-5.35 87.94-6.75 87.94-8.6L87.94-8.6Q87.94-10.9 86.69-12.33 85.44-13.75 83.39-14.68 81.34-15.6 78.84-16.35L78.84-16.35Q76.79-16.95 74.94-17.73 73.09-18.5 71.64-19.63 70.19-20.75 69.39-22.4 68.59-24.05 68.59-26.4L68.59-26.4Q68.59-29.05 69.99-31.1 71.39-33.15 73.97-34.33 76.54-35.5 79.94-35.5L79.94-35.5Q82.89-35.5 85.62-34.5 88.34-33.5 89.94-31.55L89.94-31.55Q90.69-30.75 90.69-30.1L90.69-30.1Q90.69-29.6 90.19-29.1 89.69-28.6 89.09-28.6L89.09-28.6Q88.59-28.6 88.24-28.95L88.24-28.95Q87.39-30 86.09-30.83 84.79-31.65 83.22-32.1 81.64-32.55 79.94-32.55L79.94-32.55Q77.59-32.55 75.72-31.83 73.84-31.1 72.77-29.75 71.69-28.4 71.69-26.5L71.69-26.5Q71.69-24.4 72.89-23.05 74.09-21.7 76.04-20.83 77.99-19.95 80.19-19.2L80.19-19.2Q82.34-18.6 84.32-17.82 86.29-17.05 87.82-15.9 89.34-14.75 90.22-13 91.09-11.25 91.09-8.6L91.09-8.6Q91.09-6.05 89.64-4 88.19-1.95 85.67-0.75 83.14 0.45 79.74 0.5ZM108.79 0.5L108.79 0.5Q104.94 0.5 101.99-1.15 99.04-2.8 97.39-5.75 95.74-8.7 95.74-12.65L95.74-12.65Q95.74-16.9 97.41-19.9 99.09-22.9 101.76-24.53 104.44-26.15 107.44-26.15L107.44-26.15Q109.64-26.15 111.71-25.38 113.79-24.6 115.39-23.08 116.99-21.55 117.99-19.35 118.99-17.15 119.04-14.25L119.04-14.25Q119.04-13.65 118.59-13.23 118.14-12.8 117.54-12.8L117.54-12.8 97.49-12.8 96.89-15.5 116.59-15.5 115.94-14.9 115.94-15.9Q115.69-18.25 114.39-19.9 113.09-21.55 111.26-22.4 109.44-23.25 107.44-23.25L107.44-23.25Q105.94-23.25 104.36-22.65 102.79-22.05 101.51-20.78 100.24-19.5 99.44-17.53 98.64-15.55 98.64-12.85L98.64-12.85Q98.64-9.9 99.84-7.5 101.04-5.1 103.29-3.7 105.54-2.3 108.74-2.3L108.74-2.3Q110.44-2.3 111.84-2.8 113.24-3.3 114.31-4.13 115.39-4.95 116.09-5.85L116.09-5.85Q116.64-6.3 117.14-6.3L117.14-6.3Q117.69-6.3 118.06-5.9 118.44-5.5 118.44-5L118.44-5Q118.44-4.4 117.94-3.95L117.94-3.95Q116.44-2.15 114.04-0.83 111.64 0.5 108.79 0.5ZM126.74 0L126.74 0Q126.04 0 125.64-0.45 125.24-0.9 125.24-1.5L125.24-1.5 125.24-23.9Q125.24-24.5 125.66-24.95 126.09-25.4 126.74-25.4L126.74-25.4Q127.39-25.4 127.81-24.95 128.24-24.5 128.24-23.9L128.24-23.9 128.24-16.4 127.49-16.25Q127.64-18 128.36-19.73 129.09-21.45 130.34-22.9 131.59-24.35 133.31-25.25 135.04-26.15 137.19-26.15L137.19-26.15Q138.09-26.15 138.94-25.78 139.79-25.4 139.79-24.55L139.79-24.55Q139.79-23.8 139.39-23.4 138.99-23 138.44-23L138.44-23Q137.99-23 137.46-23.25 136.94-23.5 136.09-23.5L136.09-23.5Q134.69-23.5 133.29-22.68 131.89-21.85 130.74-20.45 129.59-19.05 128.91-17.32 128.24-15.6 128.24-13.85L128.24-13.85 128.24-1.5Q128.24-0.9 127.79-0.45 127.34 0 126.74 0ZM146.38-26.1L146.38-26.1Q146.78-26.1 147.18-25.85 147.58-25.6 147.78-25.1L147.78-25.1 156.53-4.3 155.88-3.9 164.83-25.1Q165.23-26.1 166.28-26.05L166.28-26.05Q166.78-26.05 167.23-25.73 167.68-25.4 167.68-24.8L167.68-24.8Q167.68-24.5 167.61-24.33 167.53-24.15 167.48-23.95L167.48-23.95 157.68-0.95Q157.28-0.05 156.33 0L156.33 0Q155.88 0.05 155.46-0.23 155.03-0.5 154.83-0.95L154.83-0.95 144.98-23.95Q144.93-24.05 144.88-24.25 144.83-24.45 144.83-24.65L144.83-24.65Q144.83-25.2 145.23-25.65 145.63-26.1 146.38-26.1ZM176.33-24.5L176.33-1.5Q176.33-0.9 175.88-0.45 175.43 0 174.83 0L174.83 0Q174.18 0 173.76-0.45 173.33-0.9 173.33-1.5L173.33-1.5 173.33-24.5Q173.33-25.1 173.76-25.55 174.18-26 174.83-26L174.83-26Q175.48-26 175.91-25.55 176.33-25.1 176.33-24.5L176.33-24.5ZM174.83-29.35L174.83-29.35Q173.78-29.35 173.26-29.83 172.73-30.3 172.73-31.2L172.73-31.2 172.73-31.7Q172.73-32.6 173.31-33.08 173.88-33.55 174.88-33.55L174.88-33.55Q175.83-33.55 176.36-33.08 176.88-32.6 176.88-31.7L176.88-31.7 176.88-31.2Q176.88-30.3 176.36-29.83 175.83-29.35 174.83-29.35ZM195.18-26.15L195.18-26.15Q197.58-26.15 199.58-25.63 201.58-25.1 202.8-24.2 204.03-23.3 204.03-22.25L204.03-22.25Q204.03-21.75 203.65-21.28 203.28-20.8 202.73-20.8L202.73-20.8Q202.08-20.8 201.7-21.1 201.33-21.4 200.98-21.8 200.63-22.2 199.93-22.55L199.93-22.55Q199.28-22.85 198.05-23.1 196.83-23.35 195.33-23.35L195.33-23.35Q192.53-23.35 190.28-21.95 188.03-20.55 186.73-18.18 185.43-15.8 185.43-12.85L185.43-12.85Q185.43-9.85 186.65-7.45 187.88-5.05 190.1-3.68 192.33-2.3 195.23-2.3L195.23-2.3Q197.23-2.3 198.35-2.65 199.48-3 200.23-3.45L200.23-3.45Q201.23-4 201.65-4.53 202.08-5.05 202.78-5.05L202.78-5.05Q203.38-5.05 203.73-4.67 204.08-4.3 204.08-3.7L204.08-3.7Q204.08-2.9 202.9-1.93 201.73-0.95 199.68-0.23 197.63 0.5 194.93 0.5L194.93 0.5Q191.23 0.5 188.4-1.25 185.58-3 184-6.03 182.43-9.05 182.43-12.85L182.43-12.85Q182.43-16.5 184.03-19.5 185.63-22.5 188.48-24.33 191.33-26.15 195.18-26.15ZM221.18 0.5L221.18 0.5Q217.32 0.5 214.38-1.15 211.43-2.8 209.78-5.75 208.13-8.7 208.13-12.65L208.13-12.65Q208.13-16.9 209.8-19.9 211.47-22.9 214.15-24.53 216.82-26.15 219.82-26.15L219.82-26.15Q222.03-26.15 224.1-25.38 226.18-24.6 227.78-23.08 229.38-21.55 230.38-19.35 231.38-17.15 231.43-14.25L231.43-14.25Q231.43-13.65 230.97-13.23 230.53-12.8 229.93-12.8L229.93-12.8 209.88-12.8 209.28-15.5 228.97-15.5 228.32-14.9 228.32-15.9Q228.07-18.25 226.78-19.9 225.47-21.55 223.65-22.4 221.82-23.25 219.82-23.25L219.82-23.25Q218.32-23.25 216.75-22.65 215.18-22.05 213.9-20.78 212.63-19.5 211.82-17.53 211.03-15.55 211.03-12.85L211.03-12.85Q211.03-9.9 212.22-7.5 213.43-5.1 215.68-3.7 217.93-2.3 221.13-2.3L221.13-2.3Q222.82-2.3 224.22-2.8 225.63-3.3 226.7-4.13 227.78-4.95 228.47-5.85L228.47-5.85Q229.03-6.3 229.53-6.3L229.53-6.3Q230.07-6.3 230.45-5.9 230.82-5.5 230.82-5L230.82-5Q230.82-4.4 230.32-3.95L230.32-3.95Q228.82-2.15 226.43-0.83 224.03 0.5 221.18 0.5ZM236.17-4.05L236.17-4.05Q235.77-4.65 235.8-5.23 235.82-5.8 236.42-6.15L236.42-6.15Q236.82-6.5 237.35-6.45 237.87-6.4 238.32-5.95L238.32-5.95Q239.67-4.2 241.6-3.13 243.52-2.05 246.17-2.05L246.17-2.05Q247.57-2.05 248.95-2.53 250.32-3 251.22-3.98 252.12-4.95 252.12-6.45L252.12-6.45Q252.12-8 251.22-8.95 250.32-9.9 248.9-10.45 247.47-11 245.87-11.4L245.87-11.4Q244.17-11.85 242.57-12.43 240.97-13 239.75-13.88 238.52-14.75 237.77-16 237.02-17.25 237.02-19.05L237.02-19.05Q237.02-21.15 238.17-22.75 239.32-24.35 241.3-25.25 243.27-26.15 245.77-26.15L245.77-26.15Q247.02-26.15 248.47-25.83 249.92-25.5 251.32-24.75 252.72-24 253.82-22.7L253.82-22.7Q254.27-22.25 254.27-21.68 254.27-21.1 253.77-20.65L253.77-20.65Q253.37-20.35 252.85-20.35 252.32-20.35 251.97-20.75L251.97-20.75Q250.77-22.1 249.12-22.8 247.47-23.5 245.57-23.5L245.57-23.5Q244.12-23.5 242.85-23.03 241.57-22.55 240.72-21.6 239.87-20.65 239.87-19.1L239.87-19.1Q239.97-17.65 240.9-16.75 241.82-15.85 243.35-15.25 244.87-14.65 246.77-14.15L246.77-14.15Q248.37-13.75 249.85-13.2 251.32-12.65 252.45-11.83 253.57-11 254.25-9.75 254.92-8.5 254.92-6.6L254.92-6.6Q254.92-4.4 253.7-2.8 252.47-1.2 250.42-0.35 248.37 0.5 245.87 0.5L245.87 0.5Q243.17 0.5 240.65-0.55 238.12-1.6 236.17-4.05Z" opacity="1" transform="matrix(1,0,0,1,0,0)" fill="#000000" class="slogan-text-1" data-fill-palette-color="secondary" id="text-1"></path></svg></g></svg></g></svg></g></svg></g><g><svg viewBox="0 0 131.04859700856446 131.04859700856446" height="131.04859700856446" width="131.04859700856446"><g data-palette-color="#261f20"><rect width="35.81994984900762" height="131.04859700856446" fill="#000000" stroke="transparent" data-fill-palette-color="accent" x="0" fill-opacity="0.5"></rect><rect width="35.81994984900762" height="131.04859700856446" fill="#000000" stroke="transparent" data-fill-palette-color="accent" x="43.68286566952149" fill-opacity="0.75"></rect><rect width="35.81994984900762" height="131.04859700856446" fill="#000000" stroke="transparent" data-fill-palette-color="accent" x="87.36573133904298" fill-opacity="1"></rect></g></svg></g></svg></g><defs></defs></svg><rect width="395.52" height="96.07168211284313" fill="none" stroke="none" visibility="hidden"></rect></g></svg></g></svg>